<svg width="23" height="21" viewBox="0 0 23 21" fill="none" xmlns="http://www.w3.org/2000/svg">
<path d="M12.7203 2.40576L12.7206 2.40551C14.7223 0.15233 17.9032 -0.169451 20.024 1.80187C22.5183 4.1243 22.6557 8.32326 20.412 10.8492L20.4119 10.8493L12.0976 20.2148C12.0975 20.2149 12.0975 20.2149 12.0975 20.2149C11.7593 20.5955 11.237 20.5955 10.8988 20.2149C10.8988 20.2149 10.8987 20.2149 10.8987 20.2148L2.58455 10.8495C0.344816 8.32357 0.482212 4.1245 2.9764 1.80201C5.09737 -0.169649 8.28247 0.152585 10.2797 2.40514L10.2802 2.40576L11.1267 3.35732L11.5003 3.77727L11.8739 3.35732L12.7203 2.40576Z" stroke="#101010"/>
</svg>
